<?xml version="1.0" encoding="utf-8"?>
<!-- Generator: Adobe Illustrator 25.3.1, SVG Export Plug-In . SVG Version: 6.00 Build 0)  -->
<svg version="1.1" xmlns="http://www.w3.org/2000/svg" xmlns:xlink="http://www.w3.org/1999/xlink" x="0px" y="0px"
	 viewBox="0 0 450 450" style="enable-background:new 0 0 450 450;" xml:space="preserve">
<style type="text/css">
	.st0{fill:#FFFFFF;}
	.st1{fill:#36D2DE;}
	.st2{fill:#1A5887;}
	.st3{fill:#CA3100;}
	.st4{fill:#00AEB7;}
</style>
<g id="background">
	<rect class="st0" width="450" height="450"/>
</g>
<g id="icons">
	<g>
		<g>
			<path class="st1" d="M334,98.4c0,13.5-42.5,24.5-95,24.5c-52.5,0-95-11-95-24.5c0-13.5,42.5-24.5,95-24.5
				C291.5,74,334,84.9,334,98.4z"/>
			<path class="st1" d="M334,334.5c0,13.5-42.5,32.5-95,32.5c-52.5,0-95-19-95-32.5c0-13.5,42.5-24.5,95-24.5
				C291.5,310,334,321,334,334.5z"/>
			<rect x="144" y="98.4" class="st1" width="190" height="234.7"/>
			<path class="st2" d="M324.1,104.5c0,3.3-2.8,6.4-7.9,9.2c-13.5,7.5-43,12.7-77.2,12.7c-34.2,0-63.7-5.2-77.2-12.7
				c-5.1-2.8-7.9-5.9-7.9-9.2c0-12.1,38.1-21.9,85.1-21.9C286,82.6,324.1,92.4,324.1,104.5z"/>
			<path class="st3" d="M316.3,113.7c-13.5,7.5-43,12.7-77.2,12.7c-34.2,0-63.7-5.2-77.2-12.7c13.5-7.6,43-12.7,77.2-12.7
				C273.3,101,302.7,106.2,316.3,113.7z"/>
			<path class="st0" d="M324.1,189.2v95.2c-15.6,13.3-47.8,25.7-85.1,25.7c-39,0-72.6-13.5-87.2-27.6v-93.3
				c15.1,13.8,48,26.7,86.1,26.7c37.3,0,69.5-12.3,85.1-25.7C323.4,189.8,323.8,189.6,324.1,189.2z"/>
			<path class="st3" d="M151.8,116.4c0,0-5.4,11.6,0,35.4c5.4,23.8-1.1,35.3,0,46.9c1.1,11.5,28.5,27.3,25.6-7.2
				c-2.9-34.6,2.9-43.3,7.2-39.6c4.3,3.7,5.7,34.3,12.9,27.6c7.2-6.7,2.1-24.9,8.7-27.6c6.6-2.7,13-1.4,15.8,12.7
				c2.9,14,6.6,44.3,14.8,28.4c8.2-15.8-3.3-37.5,8.2-41.1c11.5-3.5,13,17.3,21.6,12.7c8.6-4.7,1.4-24.4,14.4-21
				c13,3.4,7.2,10.4,13,8.3c9-3,20.1-26.2,20.1-26.2C308,128.7,205.4,152.2,151.8,116.4z"/>
			<path class="st3" d="M156.6,276.4c0,0,127.1,28.8,159.7-60.5v64C315.8,290.4,221.1,323.2,156.6,276.4z"/>
		</g>
		<g>
			<path class="st4" d="M43.8,366.3c0-13.5,42.5-24.5,95-24.5c52.5,0,95,11,95,24.5c0,13.5-42.5,24.5-95,24.5
				C86.3,390.8,43.8,379.9,43.8,366.3z"/>
			<path class="st2" d="M53.7,360.3c0-12.1,38.1-21.9,85.1-21.9s85.1,9.8,85.1,21.9c0,12.1-38.1,21.9-85.1,21.9
				S53.7,372.4,53.7,360.3z"/>
			<path class="st3" d="M175.5,353.7c0,2.3-7.6,4.2-16.9,4.2s-16.9-1.9-16.9-4.2c0-2.3,7.6-4.2,16.9-4.2S175.5,351.4,175.5,353.7z"
				/>
			<ellipse class="st3" cx="145.8" cy="364.5" rx="40.7" ry="8.2"/>
		</g>
	</g>
</g>
</svg>
