<svg id="Capa_1" enable-background="new 0 0 512 512" height="512" viewBox="0 0 512 512" width="512" xmlns="http://www.w3.org/2000/svg"><g><path d="m369.167 0h-27.693c-4.142 0-7.5 3.358-7.5 7.5s3.358 7.5 7.5 7.5h27.693c7.076 0 12.833 5.757 12.833 12.833v107.417c0 6.378-4.713 11.663-10.836 12.59-.014.002-.028.002-.041.004-8.306 1.216-14.622-5.636-14.622-13.08v-57.535c0-11.717-9.533-21.25-21.25-21.25-11.716 0-21.25 9.532-21.25 21.25v30.021c0 7.215-6.039 13-13.222 12.742-6.771-.241-12.278-6.174-12.278-13.227v-35.286c0-8.547-6.953-15.5-15.5-15.5-12.392 0-89.712 0-102 0-8.547 0-15.5 6.953-15.5 15.5v19.771c0 7.806-7.003 13.743-14.597 12.606-.003 0-.005 0-.008-.001-6.122-.936-10.896-6.525-10.896-13.09v-62.932c0-7.076 5.757-12.833 12.833-12.833h163.64c4.142 0 7.5-3.358 7.5-7.5s-3.358-7.5-7.5-7.5h-163.64c-15.347 0-27.833 12.486-27.833 27.833v62.931c0 11.88 7.095 22.009 17.293 26.187v55.639c-5.073 2.129-8.646 7.145-8.646 12.982v16.854c0 5.837 3.573 10.854 8.646 12.982v33.957c0 8.807 4.7 17.079 12.266 21.587l59.948 35.724c3.764 2.243 6.102 6.355 6.102 10.733 0 1 .093-.274-2.587 26.073-.419 4.121 2.582 7.801 6.703 8.22 4.114.422 7.801-2.582 8.22-6.703 2.768-27.218 2.664-25.68 2.664-27.591 0-9.634-5.143-18.685-13.423-23.619l-59.948-35.724c-3.05-1.817-4.944-5.151-4.944-8.702v-32.863h217.413v32.866c0 3.55-1.895 6.884-4.944 8.702l-59.948 35.724c-8.28 4.934-13.423 13.984-13.423 23.619 0 2.074-.838-6.85 13.135 130.558 2.703 26.564-17.454 49.031-43.527 49.031-25.717 0-46.254-22.193-43.605-48.264l7.008-68.914c.419-4.121-2.582-7.801-6.703-8.22-4.117-.426-7.802 2.582-8.22 6.703l-7.008 68.915c-3.542 34.83 23.878 64.78 58.528 64.78 35.135 0 62.025-30.353 58.45-65.547-13.776-135.472-13.058-128.056-13.058-129.042 0-4.377 2.338-8.49 6.102-10.733l59.948-35.724c7.566-4.508 12.266-12.78 12.266-21.587v-33.957c5.073-2.129 8.646-7.145 8.646-12.982v-16.854c0-5.837-3.573-10.854-8.646-12.982v-11.643c10.131-4.139 17.292-14.096 17.292-25.699v-107.417c0-15.347-12.486-27.833-27.833-27.833zm-198.667 71.479c0-.276.224-.5.5-.5h12.5v65.355c0 4.142 3.358 7.5 7.5 7.5s7.5-3.358 7.5-7.5v-65.355h13v38.021c0 4.142 3.358 7.5 7.5 7.5s7.5-3.358 7.5-7.5v-38.021h46.5c.276 0 .5.224.5.5v35.286c0 15.29 11.748 27.684 26.745 28.217 7.402.266 14.684-2.368 20.273-7.762 5.602-5.407 8.481-12.567 8.481-19.97v-30.021c0-3.446 2.804-6.25 6.25-6.25s6.25 2.804 6.25 6.25v57.536c0 13.838 9.74 25.646 23.207 27.865v8.87h-217.413v-52.865c12.818-2.092 23.207-13.273 23.207-27.385zm-31.853 130.021v-15h234.706v15c-15.225 0-226.313 0-234.706 0z"/><path d="m278.5 455.5c0-12.407-10.093-22.5-22.5-22.5s-22.5 10.093-22.5 22.5 10.093 22.5 22.5 22.5 22.5-10.093 22.5-22.5zm-30 0c0-4.136 3.364-7.5 7.5-7.5s7.5 3.364 7.5 7.5-3.364 7.5-7.5 7.5-7.5-3.364-7.5-7.5z"/></g></svg>