<?xml version="1.0" encoding="utf-8"?>
<!-- Generator: Adobe Illustrator 25.3.1, SVG Export Plug-In . SVG Version: 6.00 Build 0)  -->
<svg version="1.1" id="Layer_1" xmlns="http://www.w3.org/2000/svg" xmlns:xlink="http://www.w3.org/1999/xlink" x="0px" y="0px"
	 viewBox="0 0 792 612" style="enable-background:new 0 0 792 612;" xml:space="preserve">
<style type="text/css">
	.st0{fill:#F37A6B;}
	.st1{fill:#F16251;}
	.st2{fill:#F05241;}
	.st3{fill:#E43D30;}
	.st4{fill:#232222;}
</style>
<polygon class="st0" points="93,2.7 101,16.5 0,16.5 0,2.7 "/>
<polygon class="st0" points="388,2.7 388,16.5 287,16.5 295,2.7 "/>
<polygon class="st0" points="109.3,30.9 117.2,44.7 0,44.7 0,30.9 "/>
<polygon class="st0" points="388,30.9 388,44.7 270.8,44.7 278.7,30.9 "/>
<polygon class="st0" points="125.2,58.5 133.2,72.3 0,72.3 0,58.5 "/>
<polygon class="st0" points="388,58.5 388,72.3 254.8,72.3 262.8,58.5 "/>
<polygon class="st1" points="141.2,86.3 149.1,100 0,100 0,86.3 "/>
<polygon class="st1" points="388,86.3 388,100 238.8,100 246.8,86.3 "/>
<polygon class="st1" points="157.1,113.8 165,127.5 0,127.5 0,113.8 "/>
<polygon class="st1" points="388,113.8 388,127.5 222.9,127.5 230.9,113.8 "/>
<polygon class="st1" points="173.4,141.9 181.3,155.7 0,155.7 0,141.9 "/>
<polygon class="st1" points="388,141.9 388,155.7 206.7,155.7 214.6,141.9 "/>
<polygon class="st2" points="388,169.6 388,183.4 0,183.4 0,169.6 189.3,169.6 194,177.7 198.7,169.6 "/>
<rect y="197.3" class="st2" width="388" height="13.8"/>
<rect y="225.5" class="st2" width="388" height="13.8"/>
<rect y="253.6" class="st3" width="388" height="13.8"/>
<rect y="281.3" class="st3" width="388" height="13.8"/>
<rect y="309" class="st3" width="388" height="13.8"/>
<path class="st4" d="M750.3,121H608.8c-22.7,0-41.1-18.4-41.1-41c0,0,0,0,0,0V45.3c0-23.6-19.2-42.8-42.8-42.8H402.2v320.4h122.7
	c23.6,0,42.8-19.2,42.8-42.9v-36.7c0-21.5,17.5-39,39-39h143.6c23,0,41.7-18.7,41.7-41.7S773.3,121,750.3,121L750.3,121z M750.3,185
	c-12.3,0-22.4-10-22.4-22.3c0-12.3,10-22.4,22.3-22.4c12.3,0,22.4,10,22.4,22.3c0,0,0,0,0,0C772.7,175,762.7,185,750.3,185
	L750.3,185z"/>
<path class="st4" d="M31.8,505.3H0.9V374.5H33L72.8,431l37.7-56.6h31.7v130.8h-30.9V432l0.2-6.1l-37.7,54.4h-3l-39.3-54.9l0.2,6.5
	V505.3z"/>
<path class="st4" d="M299.1,439.7c0,38.6-31.9,69.8-72.4,69.8c-40.9,0-72.6-31.2-72.6-69.8s31.7-69.4,72.6-69.4
	C267.2,370.3,299.1,401.3,299.1,439.7z M185.5,439.9c0,22.7,18.4,41.1,41.1,41.2c22.7,0,41.1-18.4,41.2-41.1
	c0-22.7-18.3-41.1-41-41.2c-22.5-0.2-41,17.9-41.2,40.4C185.5,439.4,185.5,439.6,185.5,439.9L185.5,439.9z"/>
<path class="st4" d="M344.2,461.6h-1.9v43.7h-31.2V374.5h37.5c25.8,0,51.4,9.5,51.4,44.3c0,17.4-10.4,29.5-23.8,36.1l36.5,50.3
	h-37.3L344.2,461.6z M342.3,402.2V437h7.2c12.3,0,19.6-6.3,19.6-17.7s-8.1-17.2-19.6-17.2H342.3z"/>
<path class="st4" d="M422.2,374.5H498V402h-44.5v24h39.9v25h-39.9v26.7h45.9v27.5h-77.2V374.5z"/>
<path class="st4" d="M545.6,427.2v78h-31.2V374.5h30l56.8,78.2v-78.2h31.2v130.8h-29.8L545.6,427.2z"/>
<path class="st4" d="M789.3,439.7c0,38.6-31.9,69.8-72.4,69.8c-40.9,0-72.6-31.2-72.6-69.8s31.7-69.4,72.6-69.4
	C757.4,370.3,789.3,401.3,789.3,439.7z M675.7,439.9c0,22.7,18.4,41.1,41.1,41.2c22.7,0,41.1-18.4,41.2-41.1
	c0-22.7-18.3-41.1-41-41.2c-22.5-0.2-41,17.9-41.2,40.4C675.7,439.4,675.7,439.6,675.7,439.9L675.7,439.9z"/>
<path class="st4" d="M69,557.6c0-1.1,0.8-2,1.9-2.1c0,0,0.1,0,0.1,0H83c9.6,0,15.8,6.6,15.8,15s-6.1,14.9-15.8,14.9h-3.4
	c-1,0-1.9-0.8-1.9-1.8c0,0,0,0,0-0.1c0-1,0.8-1.9,1.8-1.9c0,0,0.1,0,0.1,0h3.2c7.3,0,11.7-4.9,11.7-11s-4.4-11.2-11.7-11.2h-9.7
	v49.9c0.1,1.1-0.7,2.1-1.9,2.2c-1.1,0.1-2.1-0.7-2.2-1.9c0-0.1,0-0.2,0-0.4V557.6z"/>
<path class="st4" d="M176.2,555.8c0.4-0.5,1.1-0.9,1.7-0.9c1.1,0,2.1,0.9,2,2.1c0,0,0,0,0,0.1v52.1c0.1,1.1-0.7,2.1-1.9,2.2
	c-1.1,0.1-2.1-0.7-2.2-1.9c0-0.1,0-0.2,0-0.4V595h-17.7c-1,0-1.8-0.7-1.9-1.7c0-0.1,0-0.1,0-0.2c0-1,0.8-1.9,1.8-1.9c0,0,0,0,0.1,0
	h17.7v-28.9l-40.4,48.3c-0.4,0.5-0.9,0.8-1.5,0.8c-1.1,0-2-0.9-2-1.9c0-0.5,0.2-1,0.5-1.4L176.2,555.8z"/>
<path class="st4" d="M234.3,557.1c-0.1-1.1,0.7-2.1,1.9-2.2c1.1-0.1,2.1,0.7,2.2,1.9c0,0.1,0,0.2,0,0.4v52.1
	c0.1,1.1-0.7,2.1-1.9,2.2c-1.1,0.1-2.1-0.7-2.2-1.9c0-0.1,0-0.2,0-0.4V557.1z"/>
<path class="st4" d="M292.7,557.2c-0.1-1.2,0.8-2.1,2-2.2c0.1,0,0.1,0,0.2,0c0.6,0,1.3,0.3,1.6,0.8l32.2,38.3v-37
	c-0.1-1.1,0.7-2.1,1.9-2.2c1.1-0.1,2.1,0.7,2.2,1.9c0,0.1,0,0.2,0,0.4v52.1c0.1,1.1-0.7,2.1-1.9,2.2c-1.1,0.1-2.1-0.7-2.2-1.9
	c0-0.1,0-0.2,0-0.4v-8.6l-31.9-38.1v46.7c0.1,1.1-0.7,2.1-1.9,2.2c-1.1,0.1-2.1-0.7-2.2-1.9c0-0.1,0-0.2,0-0.4L292.7,557.2z"/>
<path class="st4" d="M399.1,559.3H385c-1,0-1.9-0.9-1.9-1.9c0-1,0.8-1.9,1.8-1.9c0,0,0,0,0,0h32.3c1,0,1.9,0.8,1.9,1.9c0,0,0,0,0,0
	c0,1-0.9,1.9-1.9,1.9h-14.1v49.9c0.1,1.1-0.7,2.1-1.9,2.2c-1.1,0.1-2.1-0.7-2.2-1.9c0-0.1,0-0.2,0-0.4L399.1,559.3z"/>
<path class="st4" d="M469.2,557.1c-0.1-1.1,0.7-2.1,1.9-2.2c1.1-0.1,2.1,0.7,2.2,1.9c0,0.1,0,0.2,0,0.4v52.1
	c0.1,1.1-0.7,2.1-1.9,2.2c-1.1,0.1-2.1-0.7-2.2-1.9c0-0.1,0-0.2,0-0.4V557.1z"/>
<path class="st4" d="M527.5,557.2c-0.1-1.2,0.9-2.2,2-2.2c0.7,0,1.3,0.3,1.8,0.8l32.2,38.3v-37c-0.1-1.1,0.7-2.1,1.9-2.2
	c1.1-0.1,2.1,0.7,2.2,1.9c0,0.1,0,0.2,0,0.4v52.1c0.1,1.1-0.7,2.1-1.9,2.2c-1.1,0.1-2.1-0.7-2.2-1.9c0-0.1,0-0.2,0-0.4v-8.6
	l-31.9-38.1v46.7c0.1,1.1-0.7,2.1-1.9,2.2c-1.1,0.1-2.1-0.7-2.2-1.9c0-0.1,0-0.2,0-0.4V557.2z"/>
<path class="st4" d="M620.3,583.1c-0.3-15.4,12-28.1,27.4-28.4c0.1,0,0.3,0,0.4,0c8.6,0,16.7,3.9,21.9,10.8c0.4,0.4,0.6,1,0.6,1.5
	c0,1.1-0.9,2-2,2c0,0-0.1,0-0.1,0c-0.6,0-1.3-0.4-1.7-0.9c-4.3-6.1-11.3-9.6-18.8-9.7c-13.2,0-23.6,10.8-23.6,24.6
	c0,13.8,10.4,24.5,23.6,24.5c12-0.1,22-9.1,23.3-21h-18.1c-1.1-0.1-1.9-1-1.8-2.1c0.1-0.9,0.8-1.7,1.8-1.8H674
	c1.1,0,1.9,0.9,1.9,1.9c0,0,0,0.1,0,0.1c-0.7,15.3-13.7,27.2-29,26.6C631.8,610.7,620,598.2,620.3,583.1L620.3,583.1z"/>
</svg>
