<?xml version="1.0" encoding="iso-8859-1"?>
<!-- Generator: Adobe Illustrator 16.0.0, SVG Export Plug-In . SVG Version: 6.00 Build 0)  -->
<!DOCTYPE svg PUBLIC "-//W3C//DTD SVG 1.1//EN" "http://www.w3.org/Graphics/SVG/1.1/DTD/svg11.dtd">
<svg version="1.1" id="Capa_1" xmlns="http://www.w3.org/2000/svg" xmlns:xlink="http://www.w3.org/1999/xlink" x="0px" y="0px"
	 width="84.349px" height="84.349px" viewBox="0 0 84.349 84.349" style="enable-background:new 0 0 84.349 84.349;"
	 xml:space="preserve">
<g>
	<path d="M18.801,47.705V40.78c0-1.594,1.291-2.886,2.887-2.886h40.97c1.597,0,2.89,1.292,2.89,2.886v6.925
		c0,1.595-1.293,2.886-2.89,2.886h-11.5c-4.463,0-3.311,6.633-3.311,10.867c0,4.622,0.674,14.399,0.674,16.157
		c0,3.72-2.438,6.733-6.156,6.733c-3.718,0-6.154-3.015-6.154-6.733c0-1.726,0.576-11.5,0.576-16.157
		c0-4.234,1.154-10.867-3.02-10.867h-12.08C20.092,50.591,18.801,49.3,18.801,47.705z M19.34,35.348
		c-0.031-0.184-0.064-0.427-0.064-0.699V4.187C19.276,1.878,21.153,0,23.462,0h37.599c2.307,0,4.186,1.878,4.186,4.187v30.462
		c0,0.272-0.035,0.516-0.066,0.699l-0.205,1.2h-45.43L19.34,35.348z M22.16,4.187v29.045c0.621-1.183,1.182-2.452,2.592-3.157
		c2.881-1.372,1.92,2.606,5.076,1.098c1.51-0.686,1.646-1.921,3.568-1.372c1.234,0.274,1.234,1.51,2.744,1.098
		c0.959-0.274,1.371-1.646,1.783-2.606c0.275-0.687,0.549-3.843,0.961-4.254c1.783-1.509,3.018,3.567,5.625,0.687
		c2.334-2.47-0.412-7.548,1.373-10.565c1.92-3.294,3.842,0,4.526,2.469c0.824,3.156-0.686,7.685,0.55,10.429
		c0.549,0.961,1.373,1.784,2.743,0.549c0.822-0.823,0.412-1.646,0.412-2.744c0-1.783-0.272-5.488,2.744-3.842
		c4.203,2.225,2.172,9.348,5.238,12.645h0.262V4.187c0-0.717-0.584-1.302-1.301-1.302H23.461C22.744,2.885,22.16,3.47,22.16,4.187z"
		/>
</g>
<g>
</g>
<g>
</g>
<g>
</g>
<g>
</g>
<g>
</g>
<g>
</g>
<g>
</g>
<g>
</g>
<g>
</g>
<g>
</g>
<g>
</g>
<g>
</g>
<g>
</g>
<g>
</g>
<g>
</g>
</svg>
