<?xml version="1.0" encoding="utf-8"?>
<!-- Generator: Adobe Illustrator 25.3.1, SVG Export Plug-In . SVG Version: 6.00 Build 0)  -->
<svg version="1.1" id="_x2018_лой_x5F_1" xmlns="http://www.w3.org/2000/svg" xmlns:xlink="http://www.w3.org/1999/xlink"
	 x="0px" y="0px" viewBox="0 0 3200 2000" style="enable-background:new 0 0 3200 2000;" xml:space="preserve">
<style type="text/css">
	.st0{fill:#DCEAFF;}
	.st1{fill:#EBF3FA;}
	.st2{fill:#C2D2FF;}
	.st3{fill:#9DB0F4;}
	.st4{fill:#D2E4FF;}
	.st5{fill:#F99746;}
	.st6{fill:#ED7D2B;}
	.st7{fill:#FF9E55;}
	.st8{fill:#E58638;}
	.st9{fill:#FFE4CC;}
	.st10{fill:#2A4E96;}
	.st11{fill:#AFCDFB;}
	.st12{fill:#FFFFFF;}
	.st13{fill:#98C6F4;}
	.st14{fill:#FFB27D;}
	.st15{fill:#163560;}
	.st16{fill:#233862;}
	.st17{fill:#FCA56B;}
	.st18{fill:#2B478B;}
	.st19{fill:#2C3A64;}
	.st20{fill:#ED975D;}
	.st21{fill:#2E3552;}
	.st22{fill:#8097D8;}
</style>
<g>
	<path class="st0" d="M2880.5,1759.1l-982.7-0.3l-1516.3-0.5c0,0-176.8-297.3-15.5-699c105.2-261.8,317.9-455,683.1-336.9
		c75.2,24.3,192.9,8.8,344.1-91.7c7.7-5.1,15.3-10.4,22.9-16c4.1-3,8.3-6.1,12.4-9.3c51.5-39.7,99.7-90,139.4-151.8
		c22.8-35.4,49.6-66.8,79.8-94.2c18.8-17,38.9-32.6,60.1-46.5c13.5-8.9,27.5-17.2,41.8-24.9c38.2-20.5,79.2-36.6,122.1-48.6
		c4.2-1.2,8.4-2.3,12.6-3.4c9.8-2.5,19.6-4.8,29.6-6.9c6.8-1.5,13.7-2.8,20.6-4c8.4-1.5,16.9-2.9,25.5-4.1h0
		c23.3-3.4,46.9-5.6,70.7-6.8c4.5-0.2,9-0.4,13.6-0.6c2.9-0.1,5.8-0.2,8.7-0.2c8.9-0.2,17.7-0.2,26.6-0.2
		c221.8,2.3,453.9,94.4,595.3,260.2c71.2,83.5,119.3,185.7,131.5,304.5c4.5,43.9,4.1,90-1.8,138.3c-0.2,1.5-0.3,2.9-0.5,4.4
		c-0.3,2.3-0.6,4.7-1,7c-1.2,8.9-2.6,17.8-4.3,26.8c-3.6,20-6,41-13.6,61C2627.8,1430.8,3080.5,1393.9,2880.5,1759.1z"/>
	<g>
		<path class="st1" d="M1469.4,1705.4h-42.2c-10.7,0-19.4-8.7-19.4-19.4v-428.1c0-10.7,8.7-19.4,19.4-19.4h42.2
			c10.7,0,19.4,8.7,19.4,19.4V1686C1488.8,1696.7,1480.1,1705.4,1469.4,1705.4z"/>
		<path class="st1" d="M1579.7,1705.4h-42.2c-10.7,0-19.4-8.7-19.4-19.4v-428.1c0-10.7,8.7-19.4,19.4-19.4h42.2
			c10.7,0,19.4,8.7,19.4,19.4V1686C1599.1,1696.7,1590.4,1705.4,1579.7,1705.4z"/>
		<path class="st1" d="M1690,1705.4h-42.2c-10.7,0-19.4-8.7-19.4-19.4v-428.1c0-10.7,8.7-19.4,19.4-19.4h42.2
			c10.7,0,19.4,8.7,19.4,19.4V1686C1709.4,1696.7,1700.7,1705.4,1690,1705.4z"/>
		<path class="st1" d="M1800.3,1705.4h-42.2c-10.7,0-19.4-8.7-19.4-19.4v-428.1c0-10.7,8.7-19.4,19.4-19.4h42.2
			c10.7,0,19.4,8.7,19.4,19.4V1686C1819.7,1696.7,1811,1705.4,1800.3,1705.4z"/>
		<path class="st1" d="M1910.7,1705.4h-42.2c-10.7,0-19.4-8.7-19.4-19.4v-428.1c0-10.7,8.7-19.4,19.4-19.4h42.2
			c10.7,0,19.4,8.7,19.4,19.4V1686C1930,1696.7,1921.4,1705.4,1910.7,1705.4z"/>
		<path class="st1" d="M2021,1705.4h-42.2c-10.7,0-19.4-8.7-19.4-19.4v-428.1c0-10.7,8.7-19.4,19.4-19.4h42.2
			c10.7,0,19.4,8.7,19.4,19.4V1686C2040.3,1696.7,2031.7,1705.4,2021,1705.4z"/>
	</g>
	<g>
		<g>
			<path class="st1" d="M2052.7,213.2v933.3h-636.6V614.7c4.1-3,8.3-6.1,12.4-9.3c51.5-39.7,99.7-90,139.4-151.8
				c22.8-35.4,49.6-66.8,79.8-94.2c18.8-17,38.9-32.6,60.1-46.5c13.5-8.9,27.5-17.2,41.8-24.9c38.2-20.5,79.2-36.6,122.1-48.6
				c4.2-1.2,8.4-2.3,12.6-3.4c9.8-2.5,19.6-4.8,29.6-6.9c6.8-1.5,13.7-2.8,20.6-4c8.4-1.5,16.9-2.9,25.5-4.1h0
				c23.3-3.4,46.9-5.6,70.7-6.8c4.5-0.2,9-0.4,13.6-0.6C2047,213.3,2049.8,213.3,2052.7,213.2z"/>
			<g>
				<path class="st2" d="M2052.7,213.2c-2.9,0.1-5.8,0.1-8.7,0.2v918.2h-615.6V605.4c-4.1,3.2-8.2,6.3-12.4,9.3
					c-7.6,5.5-15.2,10.9-22.9,16v538.6h686.1V213C2070.5,213,2061.6,213,2052.7,213.2z"/>
			</g>
			<path class="st2" d="M2117.6,1171.2h-760.3V1156c0-10.9,8.8-19.7,19.7-19.7h721.3c10.6,0,19.3,8.6,19.3,19.3V1171.2z"/>
			<path class="st2" d="M1749.6,288v855.3h-41.8V312.9C1721.3,304,1735.2,295.7,1749.6,288z"/>
			<path class="st3" d="M1735.5,711.9h-3.4c-2.3,0-4.1-1.8-4.2-4.1l-1.5-48.1c-0.1-2.4,1.8-4.4,4.2-4.4h6.4c2.4,0,4.3,2,4.2,4.4
				l-1.6,48.1C1739.6,710.1,1737.8,711.9,1735.5,711.9z"/>
		</g>
		<g>
			<polygon class="st4" points="1989.2,693.1 2044.3,700.6 1987.2,1131.9 1932.1,1124.4 			"/>
			<polygon class="st5" points="1988.2,1124.2 1987.2,1131.9 1932.1,1124.4 1933.1,1116.7 			"/>
			<polygon class="st5" points="2044.8,696.8 2043.8,704.5 1988.7,697 1989.7,689.3 			"/>
			<path class="st5" d="M1963.2,1101.2c-5.5-0.7-9.3-5.8-8.6-11.4c0.7-5.5,5.8-9.4,11.2-8.7c5.5,0.7,9.3,5.8,8.6,11.4
				S1968.7,1102,1963.2,1101.2z"/>
			<path class="st5" d="M2010,747.5c-5.5-0.7-9.3-5.8-8.6-11.4s5.8-9.4,11.2-8.7c5.5,0.7,9.3,5.8,8.6,11.4
				C2020.5,744.4,2015.5,748.3,2010,747.5z"/>
			<path class="st5" d="M1964.2,882c12.1,4.1,20,16.4,18.3,29.8c-1.8,13.3-12.6,23.1-25.4,23.8L1964.2,882z"/>
		</g>
		<g>
			<path class="st6" d="M1789.3,1131.8h-154.1c-7.1,0-12.8-5.7-12.8-12.8v-0.2c0-7.1,5.7-12.8,12.8-12.8h154.1
				c7.1,0,12.8,5.7,12.8,12.8v0.2C1802.1,1126.1,1796.4,1131.8,1789.3,1131.8z"/>
			<path class="st6" d="M1500.1,1131.8h171.8c9.5,0,17.3-7.8,17.3-17.3V983.2c0-9.5-7.8-17.3-17.3-17.3h-171.8
				c-9.5,0-17.3,7.8-17.3,17.3v131.2C1482.7,1124,1490.5,1131.8,1500.1,1131.8z"/>
			<path class="st5" d="M1644.1,966.6c0,0-42.8-27.2-83.7-27.6c-26.7-0.2-57.1,26.4-58.9,26.7c-4.6,0.7,15.4,1,15.4,1
				s30.1-17.8,43.6-18.2c16.3-0.5,57.8,19.6,57.8,19.6L1644.1,966.6z"/>
			<path class="st5" d="M1480,1131.8h171.8c9.5,0,17.3-7.8,17.3-17.3V983.2c0-9.5-7.8-17.3-17.3-17.3H1480
				c-9.5,0-17.3,7.8-17.3,17.3v131.2C1462.7,1124,1470.5,1131.8,1480,1131.8z"/>
		</g>
	</g>
	<g>
		<path class="st1" d="M2194,1406.5H1964v-14.4H2194c24.2,0,44-19.7,44-44V231.6h14.4v1116.5
			C2252.4,1380.3,2226.2,1406.5,2194,1406.5z"/>
	</g>
	<g>
		<rect x="2119.2" y="1398" class="st1" width="14.4" height="350.8"/>
	</g>
	<g>
		<g>
			<polygon class="st3" points="2084.6,1748.7 1838.1,1748.7 1828.9,1543.9 2093,1543.9 			"/>
			<path class="st2" d="M2094.1,1551.8h-270.3c-2.2,0-3.9-1.8-3.9-3.9v-1.2c0-2.2,1.8-3.9,3.9-3.9h270.3c2.2,0,3.9,1.8,3.9,3.9v1.2
				C2098.1,1550.1,2096.3,1551.8,2094.1,1551.8z"/>
			<rect x="1856.4" y="1612.7" class="st2" width="208.5" height="56.2"/>
		</g>
		<g>
			<polygon class="st7" points="2233.1,1748.7 2021.1,1748.7 2013.2,1489.4 2240.3,1489.4 			"/>
			<rect x="2005.5" y="1482.6" class="st8" width="239.2" height="19.9"/>
			<rect x="2036.9" y="1576.5" class="st9" width="179.3" height="71.1"/>
		</g>
		<g>
			<path class="st5" d="M1177.9,1730.1l215.3-39.1v60.8h-216.3C1176.9,1751.7,1178.9,1729.1,1177.9,1730.1z"/>
			<rect x="1393.2" y="1691" class="st8" width="146.3" height="60.8"/>
		</g>
	</g>
	<g>
		<g>
			<g>
				<path class="st10" d="M2281.5,893.9l-20.2-51c-1.9-4.7,0.5-10.1,5.2-12l0.2-0.1c4.7-1.9,10.1,0.5,12,5.2l20.2,51
					c1.9,4.7-0.5,10.1-5.2,12l-0.2,0.1C2288.8,901,2283.4,898.6,2281.5,893.9z"/>
				<path class="st10" d="M2225.5,819l63-25c5.2-2.1,11.1,0.5,13.2,5.7l5.8,14.5c2.1,5.2-0.5,11.1-5.7,13.2l-63,25
					c-5.2,2.1-11.1-0.5-13.2-5.7l-5.7-14.5C2217.7,827,2220.3,821.1,2225.5,819z"/>
				
					<rect x="2211.2" y="779.8" transform="matrix(-0.9297 0.3684 -0.3684 -0.9297 4647.4824 717.3395)" class="st11" width="88" height="45"/>
				<path class="st12" d="M2210.5,808c0,0,8.8,2.8,19.1-4.3c10.3-7.1,5.5-12.8,17.8-10.9c12.4,1.9,23.1-3.6,25-8.6
					c1.9-5,21.6-4,21.6-4l-6.1-15l-81.9,32.4L2210.5,808z"/>
			</g>
			<path class="st13" d="M2292.5,889.8c0.5,1.2-0.1,2.6-1.4,3.1c-1.2,0.5-2.7-0.1-3.1-1.4c-0.5-1.2,0.1-2.6,1.4-3.1
				C2290.6,887.9,2292,888.5,2292.5,889.8z"/>
		</g>
		<path class="st14" d="M2258.2,651.7c0,0-13.7-28.4-24.8-37.2c-11.1-8.8-40.7-6.7-41.9-4.4c-3.5,7,23.8,17.9,26.9,24.3
			c3.1,6.4-9.9,5.8,0.1,16.9c8.5,9.4,28.8,18.4,28.8,18.4L2258.2,651.7z"/>
		<path class="st8" d="M2246.4,648.5c7.2-11.2,9.3-11.8,9.3-11.8s118.9,47.4,130.3,51.4c11.3,4,181,13.9,181,13.9l51.2,112.5
			c0,0-226.1-51.6-254.6-62.2c-47.2-17.5-122.9-86.1-122.9-86.1S2240.7,657.3,2246.4,648.5z"/>
		<path class="st15" d="M2541.8,1700.7c0,0-2.6,41.7-10.3,51.6h-119.3c0.8-4.2,4.1-14.4,19-17c18.8-3.3,50.4-16.5,61.8-41.4
			C2505,1667.6,2541.8,1700.7,2541.8,1700.7z"/>
		<path class="st15" d="M2753.4,1694.9c0,0,7.4,54.2-2.8,55.2c-1.4,0.1-45.4,0.1-62.6,0c-21.4-0.1-55.7,0.1-55.7,0.1
			c-4.4,0.2-7.3-4.6-5.1-8.4c2.5-4.2,7.2-8.7,16.2-10.4c18.8-3.6,50.1-17.4,61.1-42.5C2716.1,1662.4,2753.4,1694.9,2753.4,1694.9z"
			/>
		<path class="st16" d="M2485.7,1145.2c0,0,30,104.9,115.9,287.2s92.6,265.3,92.6,265.3l59.2-2.8c0,0-5.6-216.9-46.2-308.9
			c-40.6-92-48.9-343.6-48.9-343.6L2485.7,1145.2z"/>
		<path class="st10" d="M2437.5,1054.9c0,0-2.4,162.5,25.7,362c28.1,199.5,18.6,284.2,18.6,284.2l67.3,2.2
			c0,0,40.2-199.6,28.7-299.5c-11.5-99.9,55.1-342.7,55.1-342.7L2437.5,1054.9z"/>
		<path class="st14" d="M2570.4,674.6l-31.8,23.5l-45.9-9.7c0.6-4.2,3.7-21.5,6.4-37.2c0.2-0.9,0.3-1.9,0.5-2.8
			c2.4-13.4,4.4-24.9,4.4-24.9l42.9-21.4l16-8c0,0.3-1.2,14.8-1.4,17C2558.5,649,2570.4,674.6,2570.4,674.6z"/>
		<path class="st8" d="M2496,662.8c1-0.4,62.4-18.6,69.1-16.3c6.7,2.2,10.6,15.1,10.6,15.1l-94.8,27
			C2480.8,688.6,2483.1,668.2,2496,662.8z"/>
		<path class="st5" d="M2661.4,1075c-10.4,47.5-227.5-101.5-224.6-130.5c0.3-3.2,0.6-6.4,1-9.6c4-40.4,7.8-79.9,8.1-105.6
			c0.2-22.4,3.3-45.2,7.4-66c3.8-19.2,8.4-36.6,12.4-50.1c2.8-9.5,8.1-18,15.2-24.6c5-4.7,10.8-8.5,17.3-11c1.8-0.7,3.6-1.4,5.4-1.9
			c26.2-7.6,62.3-17,72.1-14.1c26.6,7.8,46.3,54.6,60.3,114.2C2662.1,887.3,2668.2,1044,2661.4,1075z"/>
		<path class="st17" d="M2558.3,611.9c-9.4,18-44.5,33.6-59.1,39.3c0.2-0.9,0.3-1.9,0.5-2.8c2.4-13.4,4.4-24.9,4.4-24.9l42.9-21.4
			C2556.4,602.1,2562.2,604.5,2558.3,611.9z"/>
		<path class="st14" d="M2483.2,621.1c0,0,77.3,24.1,91.6-24.3c14.3-48.4,33.9-77.9-14.9-95.3c-48.8-17.5-63.9-1.8-72.6,13.2
			C2478.7,529.7,2463.5,613.6,2483.2,621.1z"/>
		<path class="st15" d="M2490.4,510c0,0,4.9,56.3,16.6,53.9c11.6-2.4,22.2-4.3,20.5,12.7c-1.7,17-17.9,36.6,18,39.6
			c35.9,3,87.5-89.6,77.6-107.1C2594.7,458.6,2449.3,448.4,2490.4,510z"/>
		<path class="st8" d="M2443.3,1054.9c21.5,7.8-0.4-21.4,0-27.4c1.7-26.7-8.8-60.5-5.6-92.6l131.3-78.5
			C2569,856.4,2600.2,1053.7,2443.3,1054.9z"/>
		<path class="st10" d="M2661.4,1075c-56.1,103.9-65,143.6-65,143.6c-48.8-5.6-132.4-101.5-158.9-127.1c0,0-3.6-118-0.7-147
			l40.5-1.2c0,0,73.2,18.6,92.2-6.6c19-25.2,10.8-148.9,10.8-148.9l55.7-12C2662.1,887.3,2676.4,1047.1,2661.4,1075z"/>
		<path class="st14" d="M2328.8,875.9c0,0-26.7-18.1-31.7-19.6c-5.1-1.6-8-9.4-8.9-10.7c-3-4.4-4.5,3.4-3.2,6.3
			c1.6,3.4,3.9,8.2-3.6,7.1c-1.4-0.2-13.5-0.5-16,5.1c-2.5,5.6-4.7,24.6,8.1,30.4s44.4,0.6,46.7,1.2
			C2339.4,901.3,2328.8,875.9,2328.8,875.9z"/>
		<path class="st5" d="M2328.5,871c0,0,130.2,22.1,141.8,16.5c18.4-9-7.1-141.1-7.1-141.1s-1.1-29.9,33.9-37
			c30.4-6.1,59.7,16.6,59.7,16.6s26.7,23.9,23.3,50.3c-7.6,58.7-19.3,178-58.6,196.3c-50.6,23.6-197.1-65.4-197.1-65.4
			s-4.9-6-4.2-17.1C2320.8,880.4,2328.5,871,2328.5,871z"/>
		<path class="st10" d="M2591.1,785.4l-10.8,2.3c0,0-22.8-98.7-99.5-99.2c5-4.7,10.8-8.5,17.3-11
			C2526.3,685.1,2575,709.1,2591.1,785.4z"/>
		<g>
			<g>
				<path class="st10" d="M2248.1,623.2l-45.2,26.9c-4.2,2.5-9.6,1.2-11.9-2.8l-0.1-0.2c-2.4-4-0.9-9.3,3.3-11.8l45.2-26.9
					c4.2-2.5,9.6-1.2,11.9,2.8l0.1,0.2C2253.7,615.4,2252.2,620.7,2248.1,623.2z"/>
				<path class="st10" d="M2199.9,711.4l-61.1-102.8c-3.8-6.4-1.7-14.8,4.7-18.6l6.2-3.7c6.4-3.8,14.8-1.7,18.6,4.7l61.1,102.8
					c3.8,6.4,1.7,14.8-4.7,18.6l-6.2,3.7C2212.1,720,2203.7,717.8,2199.9,711.4z"/>
				<polygon class="st11" points="2221.6,714.3 2184.5,736.3 2109.6,610.1 2117.2,605.6 2146.6,588.1 				"/>
				<path class="st12" d="M2195.1,729.6l-10.5,6.7l-75-126.2l7.6-4.5c4.4,3.2,24.1,18.2,25.6,34.6c1.7,18.5,24.3,30.8,25,40.6
					c0.6,9.8,0,23.9,12,28C2191.6,712.9,2195.1,729.6,2195.1,729.6z"/>
			</g>
			<path class="st13" d="M2242.6,613.7c1.1-0.7,2.5-0.3,3.2,0.8c0.7,1.1,0.3,2.5-0.8,3.2c-1.1,0.7-2.5,0.3-3.2-0.8
				C2241.2,615.8,2241.5,614.4,2242.6,613.7z"/>
		</g>
		<path class="st14" d="M2228.6,643.5c-0.1-0.1-6-7.2-11.8-14.1c-4.3-5.1-6.9-11.6-8.8-13.6c-4.4-4.6-8.1,5.8-1.6,18.9
			c5.5,11.1,15.7,20.2,19.3,22.6C2229.2,659.9,2228.6,643.5,2228.6,643.5z"/>
	</g>
	<g>
		<g>
			<g>
				<path class="st2" d="M1223.1,1302.8c-1.8-0.8-2.6-2.9-1.8-4.7l15.7-35.9c1.2-2.8-0.1-6.2-2.9-7.4l-79.1-34.6
					c-6.4-2.8-9.3-10.3-6.5-16.7l11.8-27.1c2.8-6.4,10.3-9.3,16.7-6.5l32.8,14.4c1.8,0.8,2.6,2.9,1.8,4.7s-2.9,2.6-4.7,1.8
					l-32.8-14.4c-2.8-1.2-6.2,0.1-7.4,2.9l-11.8,27.1c-1.2,2.8,0.1,6.2,2.9,7.4l79.1,34.6c6.4,2.8,9.3,10.3,6.5,16.7l-15.7,35.9
					C1227,1302.8,1224.9,1303.6,1223.1,1302.8z"/>
			</g>
			<path class="st5" d="M1221.1,1316.4l-8-3.5c-3-1.3-4.4-4.9-3.1-7.9l17.9-40.9c1.3-3,4.9-4.4,7.9-3.1l8,3.5c3,1.3,4.4,4.9,3.1,7.9
				l-17.9,40.9C1227.7,1316.4,1224.1,1317.7,1221.1,1316.4z"/>
			<path class="st2" d="M1345.9,1232.6l-11.1,25.4c-2.9,6.6-10.6,9.6-17.2,6.7l-131.6-57.6c-6.6-2.9-9.6-10.6-6.7-17.2l11.1-25.4
				c2.9-6.6,10.6-9.6,17.2-6.7l131.6,57.6C1345.8,1218.2,1348.8,1225.9,1345.9,1232.6z"/>
			<path class="st1" d="M1345.9,1232.6l-3.8,8.8c-2.9,6.6-10.6,9.6-17.2,6.7l-131.6-57.6c-6.6-2.9-9.6-10.6-6.7-17.2l3.8-8.8
				c2.9-6.6,10.6-9.6,17.2-6.7l131.6,57.6C1345.8,1218.2,1348.8,1225.9,1345.9,1232.6z"/>
		</g>
		<path class="st14" d="M986.4,1335.5c0,0,28.6,4.1,35.2,11.6c6.6,7.5,10.8,13.3,6.6,16.6s-67.2-12.9-67.2-12.9L986.4,1335.5z"/>
		<path class="st8" d="M917.5,1234.3l77.1,98.7c0,0-6.6,13.3-28.2,15.8c-21.6,2.5-67.2-11.6-67.2-15.8S917.5,1234.3,917.5,1234.3z"
			/>
		<path class="st18" d="M1161.7,1448.1c-22.4,25.8-69.7,42.6-161,46.8c-7.3,0.3-14.7,0.6-22.1,0.9c-7.6,0.2-15.3,0.4-22.9,0.5
			c-24.8,0.3-49.5,0.1-73-0.7c-22.8-0.8-44.5-2-64.2-3.7c-38.5-3.2-69.2-7.9-85.1-13.2c-4.8-1.6-8.2-3.2-10.1-5
			c-1.6-1.5-2.9-3.2-3.9-5.1c-5.8-10.7-2.7-28.2,4.2-47.5c10.1-28.1,28.7-59.9,41.3-79.8c2.5-4,4.8-7.5,6.7-10.4
			c3.8-5.8,6.2-9.3,6.2-9.3s42.6,4,101,11.5c11.9,1.5,24.5,3.2,37.5,5.1c125.5,17.7,250.5,49.6,250.4,92
			C1166.5,1436.7,1167,1442,1161.7,1448.1z"/>
		<path class="st19" d="M1006.3,1494.4c-7.6,0.2-43,1.8-50.6,1.9c-24.8,0.3-49.5,0.1-73-0.7l-22.1-89.1
			C894.7,1454.1,995.3,1491.3,1006.3,1494.4z"/>
		<path class="st19" d="M932.4,1753.3H1054c-1.9-4.6-6.6-10.7-17.8-12.6c-19.2-3.4-52.4-13.7-48.2-41.4c4.3-28-42.3-31.7-42.3-31.7
			S926.3,1742.6,932.4,1753.3z"/>
		<path class="st18" d="M1163.6,1443.5c0,0-150.9,237.4-163.5,265.6c0,0-51.3,4.8-63.7-31.9c0,0,89.7-250.6,129.1-271.2
			C1105,1385.4,1163.6,1443.5,1163.6,1443.5z"/>
		<g>
			<path class="st14" d="M859.3,943.7c0,0,52,71.1,98.3,74.9c0,0-5.9-26.8-19.6-43.7c3.7-5.9,6.9-11.4,9.6-16.2
				c9.1-16.1,13.1-25.8,13.1-25.8l-21.3-38.6l-4.4-20.7c-3.6,9.7-7.8,18.7-12.5,26.1C898.2,938,859.3,943.7,859.3,943.7z"/>
			<path class="st20" d="M920.5,899.5c0,0-7.5,35.6,27.1,59.3c9.1-16.1,13.1-25.8,13.1-25.8l-21.3-38.6
				C922.4,891.9,920.5,899.5,920.5,899.5z"/>
			<path class="st14" d="M967.2,954.5c0,0-65.2-35.5-42.4-75.8c22.7-40.3,29.6-72,72.2-51s41.9,40.9,37.6,56.1
				C1030.3,899.2,984.8,962.7,967.2,954.5z"/>
			<path class="st18" d="M925,798.6c-0.4-1-1.6-2.2-4.9-3.7c0,0,3.3-0.7,6.9,0.6c2.5-4.5,8.2-11.9,17-10.8c0,0-5.2,0.7-7.7,5.5
				c13-6.1,35.6-5.5,88.9,20.2c70.3,33.8,28.2,71.7,16.6,73.7c-11.6,2-29.2-22.5-47.3-27.9c-18-5.3-31.3,19-38.6,20.3
				c-7.3,1.2-2.6-4.1-9.2-10.9c-6.6-6.8-12.6,6.4-13.7,16.1c-1.1,9.7-16.6,17-16.6,17s0,0-6.4-16.5c-6.4-16.5,3-72.2,12.3-81.2
				C923.3,800.2,924.2,799.4,925,798.6z"/>
		</g>
		<path class="st16" d="M535.8,1675.6c0,0-15.2,23-18.7,30.5c-3.5,7.5,3.4,23.3,13.8,25.7c9.2,2.1,10.5,18.4,10.5,18.4H497
			c-4.7,0-9-2.6-10.8-6.6c-6.3-13.8-7.7-31.7-9-37.7c-2.7-12.6-7.9-23.2-5.6-36.1c2.3-12.8,24.2-20.2,64.1-20.1
			C579.6,1649.8,535.8,1675.6,535.8,1675.6z"/>
		<path class="st5" d="M666.5,1398.1c33.5,35.5,279.7-38,259.1-56.7c-5.2-4.8-3.5-10.5-5.6-18.1c-10.2-36.3,10.1-98.5,18.8-122.6
			c2-5.6,3.4-9.1,3.7-9.8c8.3-22.5,14.8-45.9,19-68.6c8.1-43.4,8-83.8-3.1-108.6c-0.1-0.1-0.1-0.2-0.2-0.3
			c-46.1-13.5-71.5-81.3-71.5-81.3S740.6,973.6,687.5,1182c0,0-2.7,13.3-6.1,33.2h0c-1,6.1-2.1,12.9-3.2,20.1
			c-5.7,37.1-8.9,84.7-12.3,120.1c-0.1,1.2-0.2,2.5-0.4,3.8C663.8,1374.4,660.9,1392.2,666.5,1398.1z"/>
		<path class="st18" d="M860.3,1362.9c0,0-24.5,3.2-74,6.9c-51.3,3.8-105.6,11.9-114.5,29.1c-2.9,5.7-0.9,20.1,4.8,40.1
			c12.6,44.1,43.3,115.1,78.3,178.1c-89.9,5.2-212.2,25.1-212.2,25.1c-20,22.6-11.6,49.1-11.6,49.1c6.4,0.1,25.7,2.8,52,7
			c95.4,15.4,211.6,46.9,283.6,46.9c15.8,0,27.5-11.2,32.3-25.8v0C928.7,1629.2,860.3,1362.9,860.3,1362.9z"/>
		<path class="st19" d="M676.6,1445.7c49.6-1.6,174.1-62.7,172.1-63.2c-23.2-5.7-43.9-9.6-62.4-12.1
			c-51.3,4.1-105.6,12.9-114.5,31.7C668.9,1408.3,670.9,1424,676.6,1445.7z"/>
		<path class="st8" d="M836,1074.5c0,0,2.9,225.8,84,248.8c-10.2-36.3,10.1-98.5,18.8-122.6C917.9,1142.6,879.4,1084.1,836,1074.5z"
			/>
		<path class="st18" d="M862.2,942.2c0,0,62.4,13,68.5,67.7c4.4,39.9-39.1,130.1-39.1,130.1l-8.3-8.3c0,0,38.2-111.4,32.4-130.4
			c-7.5-24.3-43.4-60.7-76.5-46.1L862.2,942.2z"/>
		<path class="st18" d="M666.5,1398.1c33.5,35.5,285-37.2,264.4-55.9c-5.2-4.8-8.8-11.3-10.9-18.9c-10.2-36.3,10.1-98.5,18.8-122.6
			c2-5.6,3.4-9.1,3.7-9.8l-12.7-12.7l-46.5-46.4c0,0-13.8,15.6-39.8,33.3c-34.1,23.2-89.2,50.1-162.1,50.2h0
			c-1,6.1-2.1,12.9-3.2,20.1c-5.7,37.1-8.9,84.7-12.3,120.1c-0.1,1.2-0.2,2.5-0.4,3.8C663.8,1374.4,660.9,1392.2,666.5,1398.1z"/>
		<path class="st19" d="M843.5,1165.1c9.3,65.6,30.1,145.1,76.5,158.3c-10.2-36.3,10.1-98.5,18.8-122.6c-2.7-7.5-5.7-15.1-9-22.5
			l-46.5-46.4C883.3,1131.7,869.5,1147.4,843.5,1165.1z"/>
		<path class="st14" d="M1223.6,1313.5c-15.2,0-43.5-13.9-46.1-14.1c-21.7-2.1-0.8-23.4-0.8-23.4s34-7.5,39.7-7
			c1.9,0.1,5,0.8,8.3,1.6l-3.7,8.7c0,0,23.7,3.6,24,10.2C1245.5,1296.1,1231,1313.5,1223.6,1313.5z"/>
		<path class="st5" d="M1183.4,1286.6c5.2-15.1-2.1-19.8-2.1-19.8s-148.6-70.5-160.8-78.2c-12.2-7.8-93.9-156.6-93.9-156.6
			s-30.3-60.9-68.9-59.6c-33.5,1.1-52.2,22-62.5,43.9c-12.3,26.1-7.1,57.1,12.7,78.1c44.5,47.1,133.9,140.4,157,154.5
			c51.5,31.5,206,57,206,57S1179.3,1298.5,1183.4,1286.6z"/>
	</g>
	<path class="st21" d="M2971.9,1761.2H257.8c-2.1,0-3.9-1.7-3.9-3.9v-3.6c0-2.1,1.7-3.9,3.9-3.9h2714.1c2.1,0,3.9,1.7,3.9,3.9v3.6
		C2975.7,1759.5,2974,1761.2,2971.9,1761.2z"/>
	<g>
		<path class="st22" d="M1878.8,1649.6c-12.4,55.8-54.7,100.4-94.4,99.6c-39.7-0.8-61.9-46.6-49.4-102.4s54.7-100.4,94.4-99.6
			C1869.1,1548,1891.2,1593.8,1878.8,1649.6z"/>
		<path class="st2" d="M1869.8,1647.6c-12.4,55.8-54.7,100.4-94.4,99.6s-61.9-46.6-49.4-102.4c12.4-55.8,54.7-100.4,94.4-99.6
			C1860.1,1545.9,1882.3,1591.8,1869.8,1647.6z"/>
		<g>
			<path class="st22" d="M1779.2,1732.6c-0.3,0-0.6,0-0.9,0c-12.8-0.3-23.8-5.9-32-16.3c-13-16.6-17-43.4-10.7-71.8
				c10.6-47.8,47-86.1,81.1-85.4c12.8,0.3,23.8,5.9,32,16.3c13,16.6,17,43.4,10.7,71.8C1848.9,1694.5,1813.1,1732.6,1779.2,1732.6z
				 M1815.9,1560.1c-33.4,0-68.8,37.7-79.2,84.6c-6.3,28.1-2.3,54.6,10.5,70.9c8,10.1,18.8,15.6,31.2,15.9c0.3,0,0.6,0,0.9,0
				c33.4,0,68.8-37.7,79.2-84.6c6.3-28.1,2.3-54.6-10.5-70.9c-8-10.1-18.8-15.6-31.2-15.9
				C1816.5,1560.1,1816.2,1560.1,1815.9,1560.1z"/>
		</g>
	</g>
</g>
</svg>
